<svg xmlns="http://www.w3.org/2000/svg" viewBox="0 0 900 150" width="900" height="150" role="img" aria-label="fewling — mobile, backend, cloud, ai">
  <title>fewling — mobile, backend, cloud, ai</title>
  <rect x="1" y="1" width="898" height="148" rx="14" fill="#0d1117" stroke="#21262d" stroke-width="1"/>
  <text x="40" y="80" font-family="ui-monospace, SFMono-Regular, Menlo, monospace" font-size="46" font-weight="600" fill="#e6edf3">fewling</text>
  <rect x="240" y="50" width="14" height="34" fill="#5DCAA5">
    <animate attributeName="opacity" values="1;1;0.12;0.12;1" dur="1.6s" repeatCount="indefinite"/>
  </rect>
  <text x="42" y="116" font-family="ui-monospace, SFMono-Regular, Menlo, monospace" font-size="16" fill="#8b949e">mobile · backend · cloud · ai</text>
  <rect x="42" y="130" width="118" height="3" fill="#1D9E75"/>
  <polyline fill="none" stroke="#1D9E75" stroke-width="2" stroke-linejoin="round" stroke-linecap="round" points="500,62 513,56 526,70 539,44 552,78 565,40 578,80 591,52 604,66 617,42 630,82 643,54 656,72 669,46 682,78 695,38 708,76 721,58 734,68 747,48 760,80 773,52 786,70 799,44 812,76 825,60 838,64 851,56 864,62">
    <animate attributeName="points" dur="2.6s" repeatCount="indefinite" values="500,62 513,56 526,70 539,44 552,78 565,40 578,80 591,52 604,66 617,42 630,82 643,54 656,72 669,46 682,78 695,38 708,76 721,58 734,68 747,48 760,80 773,52 786,70 799,44 812,76 825,60 838,64 851,56 864,62 ; 500,62 513,68 526,46 539,80 552,44 565,76 578,52 591,64 604,40 617,82 630,50 643,74 656,46 669,80 682,42 695,78 708,54 721,66 734,48 747,76 760,50 773,72 786,44 799,80 812,52 825,64 838,60 851,70 864,62 ; 500,62 513,50 526,76 539,42 552,82 565,48 578,70 591,58 604,66 617,44 630,80 643,52 656,72 669,46 682,82 695,40 708,74 721,56 734,68 747,50 760,78 773,46 786,72 799,42 812,80 825,58 838,62 851,54 864,62 ; 500,62 513,56 526,70 539,44 552,78 565,40 578,80 591,52 604,66 617,42 630,82 643,54 656,72 669,46 682,78 695,38 708,76 721,58 734,68 747,48 760,80 773,52 786,70 799,44 812,76 825,60 838,64 851,56 864,62"/>
  </polyline>
  <polyline fill="none" stroke="#1D9E75" stroke-width="2" stroke-linejoin="round" stroke-linecap="round" opacity="0.3" points="500,62 513,50 526,76 539,42 552,82 565,48 578,70 591,58 604,66 617,44 630,80 643,52 656,72 669,46 682,82 695,40 708,74 721,56 734,68 747,50 760,78 773,46 786,72 799,42 812,80 825,58 838,62 851,54 864,62">
    <animate attributeName="points" dur="2.6s" repeatCount="indefinite" values="500,62 513,50 526,76 539,42 552,82 565,48 578,70 591,58 604,66 617,44 630,80 643,52 656,72 669,46 682,82 695,40 708,74 721,56 734,68 747,50 760,78 773,46 786,72 799,42 812,80 825,58 838,62 851,54 864,62 ; 500,62 513,56 526,70 539,44 552,78 565,40 578,80 591,52 604,66 617,42 630,82 643,54 656,72 669,46 682,78 695,38 708,76 721,58 734,68 747,48 760,80 773,52 786,70 799,44 812,76 825,60 838,64 851,56 864,62 ; 500,62 513,68 526,46 539,80 552,44 565,76 578,52 591,64 604,40 617,82 630,50 643,74 656,46 669,80 682,42 695,78 708,54 721,66 734,48 747,76 760,50 773,72 786,44 799,80 812,52 825,64 838,60 851,70 864,62 ; 500,62 513,50 526,76 539,42 552,82 565,48 578,70 591,58 604,66 617,44 630,80 643,52 656,72 669,46 682,82 695,40 708,74 721,56 734,68 747,50 760,78 773,46 786,72 799,42 812,80 825,58 838,62 851,54 864,62"/>
  </polyline>
</svg>
