<svg xmlns="http://www.w3.org/2000/svg" viewBox="0 0 900 150" width="900" height="150" role="img" aria-label="fewling — fullstack &amp; web engineer; mobile, backend, cloud, ai">
  <title>fewling — fullstack &amp; web engineer; mobile, backend, cloud, ai</title>
  <defs>
    <clipPath id="wave"><rect x="500" y="32" width="364" height="62"/></clipPath>
  </defs>
  <rect x="1" y="1" width="898" height="148" rx="14" fill="#0d1117" stroke="#21262d" stroke-width="1"/>
  <text x="40" y="80" font-family="ui-monospace, SFMono-Regular, Menlo, monospace" font-size="46" font-weight="600" fill="#e6edf3">fewling</text>
  <rect x="240" y="50" width="14" height="34" fill="#5DCAA5">
    <animate attributeName="opacity" values="1;1;0.12;0.12;1" dur="1.6s" repeatCount="indefinite"/>
  </rect>
  <g font-family="ui-monospace, SFMono-Regular, Menlo, monospace" font-size="14">
    <rect x="286" y="48" width="104" height="28" rx="14" fill="#161b22" stroke="#1D9E75" stroke-width="1"/>
    <text x="338" y="66" text-anchor="middle" fill="#5DCAA5">fullstack</text>
    <rect x="400" y="48" width="54" height="28" rx="14" fill="#161b22" stroke="#1D9E75" stroke-width="1"/>
    <text x="427" y="66" text-anchor="middle" fill="#5DCAA5">web</text>
  </g>
  <text x="42" y="116" font-family="ui-monospace, SFMono-Regular, Menlo, monospace" font-size="16" fill="#8b949e">mobile · backend · cloud · ai</text>
  <rect x="42" y="130" width="118" height="3" fill="#1D9E75"/>
  <g clip-path="url(#wave)">
    <g>
      <animateTransform attributeName="transform" type="translate" from="0 0" to="-364 0" dur="5s" repeatCount="indefinite"/>
      <polyline fill="none" stroke="#1D9E75" stroke-width="2" stroke-linejoin="round" stroke-linecap="round" opacity="0.3" points="500,62 513,72 526,80 539,82 552,76 565,66 578,58 591,52 604,50 617,54 630,60 643,64 656,64 669,62 682,62 695,54 708,46 721,44 734,50 747,60 760,70 773,78 786,80 799,74 812,64 825,56 838,52 851,54 864,62 877,72 890,80 903,82 916,76 929,66 942,58 955,52 968,50 981,54 994,60 1007,64 1020,64 1033,62 1046,62 1059,54 1072,46 1085,44 1098,50 1111,60 1124,70 1137,78 1150,80 1163,74 1176,64 1189,56 1202,52 1215,54 1228,62"/>
      <polyline fill="none" stroke="#1D9E75" stroke-width="2" stroke-linejoin="round" stroke-linecap="round" points="500,62 513,54 526,46 539,44 552,50 565,60 578,70 591,78 604,80 617,74 630,64 643,56 656,52 669,54 682,62 695,72 708,80 721,82 734,76 747,66 760,58 773,52 786,50 799,54 812,60 825,64 838,64 851,62 864,62 877,54 890,46 903,44 916,50 929,60 942,70 955,78 968,80 981,74 994,64 1007,56 1020,52 1033,54 1046,62 1059,72 1072,80 1085,82 1098,76 1111,66 1124,58 1137,52 1150,50 1163,54 1176,60 1189,64 1202,64 1215,62 1228,62"/>
    </g>
  </g>
</svg>
